<svg xmlns="http://www.w3.org/2000/svg" fill="none" viewBox="0 0 464 50"><path fill="#222" d="M77.57 14.4h13.44V34h-4.2V18.18h-5.37l-.31 3.56c-.1.93-.24 2.01-.42 3.24-.19 1.24-.4 2.25-.62 3.06-.2.8-.48 1.63-.84 2.49a5.74 5.74 0 01-2.74 3.25c-.62.31-1.3.47-2.07.47-.79 0-1.52-.12-2.19-.36v-3.7c.4.11.84.16 1.35.14.35-.02.68-.13.98-.33.3-.23.56-.55.78-.98a9.36 9.36 0 001.1-3.16l.33-2.02c.1-.6.18-1.38.25-2.33.1-.95.16-1.72.2-2.32a1016.76 1016.76 0 01.34-4.79zm28.99 16.13c0 .6.31.9.95.9.26 0 .5-.04.72-.12v2.55a6.2 6.2 0 01-2.15.4c-1.42 0-2.4-.51-2.97-1.52a7.62 7.62 0 01-4.84 1.65 5.23 5.23 0 01-3.36-1.09 3.73 3.73 0 01-1.35-3.02c0-1.07.32-1.95.95-2.66a4.68 4.68 0 012.22-1.43 9.2 9.2 0 012.74-.4c1.1 0 2.17.13 3.2.37v-.48c0-.69-.28-1.24-.82-1.65a3.84 3.84 0 00-2.35-.61c-1.5 0-3.08.33-4.76 1v-3.36c1.8-.6 3.53-.9 5.2-.9 4.41 0 6.62 2.03 6.62 6.08v4.29zm-6.2-2.41c-.8 0-1.47.15-2 .45-.55.3-.82.76-.82 1.4 0 .48.2.88.59 1.2.4.3.91.45 1.5.45 1.19 0 2.2-.36 3.03-1.1v-2.1a10 10 0 00-2.3-.3zm23.7-.25c0 2.07-.66 3.68-1.98 4.81a7.63 7.63 0 01-5.15 1.71 7 7 0 01-5.18-1.99c-1.33-1.34-1.99-3.38-1.99-6.13 0-4.35 1.37-7.38 4.12-9.1a11.25 11.25 0 013.5-1.43c1.27-.28 2.37-.5 3.3-.7a4.3 4.3 0 002.21-1.03v3.55c-.63.53-1.7.9-3.22 1.15-1.5.23-2.65.55-3.47.98-.7.4-1.27.94-1.68 1.65a5.9 5.9 0 00-.78 2.16c1-1.4 2.46-2.1 4.36-2.1 1.72 0 3.14.58 4.26 1.74 1.14 1.15 1.7 2.73 1.7 4.73zm-10.32.03c0 .87.26 1.66.78 2.35.52.69 1.33 1.03 2.4 1.03 1.1 0 1.88-.33 2.39-1 .52-.7.78-1.49.78-2.38 0-.9-.26-1.68-.78-2.36-.5-.69-1.3-1.03-2.38-1.03-1.07 0-1.87.35-2.41 1.06-.52.7-.78 1.47-.78 2.33zm14.3 4.62c-1.43-1.25-2.15-3-2.15-5.24s.72-3.99 2.15-5.24a7.74 7.74 0 015.27-1.87c2.09 0 3.84.62 5.26 1.87 1.44 1.25 2.16 3 2.16 5.24s-.72 3.99-2.16 5.24a7.67 7.67 0 01-5.26 1.87 7.74 7.74 0 01-5.27-1.87zm7.82-2.6c.61-.7.92-1.58.92-2.64a3.7 3.7 0 00-.92-2.6 3.24 3.24 0 00-2.55-1.04c-1.08 0-1.93.35-2.55 1.04-.6.67-.9 1.54-.9 2.6s.3 1.94.9 2.63c.62.67 1.47 1.01 2.55 1.01 1.08 0 1.93-.34 2.55-1zm10.85-7.4c1.1-1.57 2.73-2.35 4.88-2.35 2.03 0 3.63.7 4.78 2.1a7.47 7.47 0 011.77 5.01c0 1.96-.6 3.64-1.77 5.04a5.9 5.9 0 01-4.78 2.07c-1.85 0-3.33-.6-4.43-1.82v7.59h-3.9v-19.6h3.45v1.96zm6.5 7.5c.63-.74.95-1.66.95-2.74 0-1.08-.32-1.99-.95-2.72a3.2 3.2 0 00-2.58-1.12 3.76 3.76 0 00-3.5 2.24v3.2a3.8 3.8 0 003.5 2.24c1.09 0 1.94-.37 2.58-1.1zm19.49.5c0 .6.32.9.95.9.26 0 .5-.03.73-.1v2.54c-.71.26-1.43.4-2.16.4-1.42 0-2.4-.51-2.97-1.52a7.62 7.62 0 01-4.84 1.65 5.23 5.23 0 01-3.36-1.09 3.73 3.73 0 01-1.34-3.02c0-1.07.31-1.95.95-2.66a4.68 4.68 0 012.21-1.43 9.2 9.2 0 012.75-.4c1.1 0 2.16.13 3.19.37v-.48c0-.69-.27-1.24-.81-1.65a3.84 3.84 0 00-2.36-.61c-1.49 0-3.08.33-4.76 1v-3.36c1.8-.6 3.53-.9 5.21-.9 4.4 0 6.6 2.03 6.6 6.08v4.29zm-6.19-2.4c-.8 0-1.47.15-2.01.45-.55.3-.82.76-.82 1.4 0 .48.2.88.6 1.2.4.3.9.45 1.5.45 1.18 0 2.19-.36 3.03-1.1v-2.1a10 10 0 00-2.3-.3zm16.4 5.88h-3.86V23.84h-4.28v-3.28h12.43v3.28h-4.28V34zm7.42-1.48c-1.43-1.25-2.15-3-2.15-5.24s.72-3.99 2.15-5.24a7.74 7.74 0 015.27-1.87c2.09 0 3.84.62 5.26 1.87 1.44 1.25 2.16 3 2.16 5.24s-.72 3.99-2.16 5.24a7.67 7.67 0 01-5.26 1.87 7.74 7.74 0 01-5.27-1.87zm7.81-2.6c.62-.7.93-1.58.93-2.64a3.7 3.7 0 00-.92-2.6 3.24 3.24 0 00-2.55-1.04c-1.09 0-1.94.35-2.55 1.04-.6.67-.9 1.54-.9 2.6s.3 1.94.9 2.63c.61.67 1.46 1.01 2.55 1.01 1.08 0 1.93-.34 2.55-1zm10.86-7.4c1.1-1.57 2.73-2.35 4.87-2.35 2.04 0 3.63.7 4.8 2.1a7.47 7.47 0 011.76 5.01c0 1.96-.6 3.64-1.77 5.04a5.9 5.9 0 01-4.79 2.07c-1.84 0-3.32-.6-4.42-1.82v7.59h-3.9v-19.6H209v1.96zm6.5 7.5c.63-.74.95-1.66.95-2.74 0-1.08-.32-1.99-.95-2.72a3.2 3.2 0 00-2.58-1.12 3.76 3.76 0 00-3.5 2.24v3.2a3.8 3.8 0 003.5 2.24c1.09 0 1.94-.37 2.58-1.1zM226.36 34h-3.38V20.56h3.89v7.56l5.99-7.56h3.36V34h-3.86v-7.56l-6 7.56zm16.35 0h-4.37l3.53-4.5a4.42 4.42 0 01-2.74-4.24c0-1.32.46-2.43 1.4-3.33.95-.91 2.28-1.37 3.97-1.37h7.28V34h-3.89v-4h-2.18l-3 4zm.36-8.62c0 .54.2.96.56 1.26.4.3.95.44 1.66.44h2.6v-3.44h-2.6c-1.48 0-2.22.58-2.22 1.74zm21.66-2.86c1.1-1.57 2.72-2.35 4.87-2.35 2.03 0 3.63.7 4.79 2.1a7.47 7.47 0 011.76 5.01c0 1.96-.58 3.64-1.76 5.04a5.91 5.91 0 01-4.79 2.07c-1.85 0-3.32-.6-4.42-1.82v7.59h-3.9v-19.6h3.45v1.96zm6.5 7.5a4.1 4.1 0 00.95-2.74c0-1.08-.32-1.99-.95-2.72a3.2 3.2 0 00-2.58-1.12 3.76 3.76 0 00-3.5 2.24v3.2a3.8 3.8 0 003.5 2.24c1.08 0 1.94-.37 2.58-1.1zm8.87 2.5c-1.44-1.25-2.15-3-2.15-5.24s.72-3.99 2.15-5.24a7.74 7.74 0 015.27-1.87c2.09 0 3.84.62 5.26 1.87 1.44 1.25 2.16 3 2.16 5.24s-.72 3.99-2.16 5.24a7.68 7.68 0 01-5.26 1.87 7.74 7.74 0 01-5.27-1.87zm7.81-2.6c.62-.7.93-1.58.93-2.64a3.7 3.7 0 00-.92-2.6 3.24 3.24 0 00-2.55-1.04c-1.09 0-1.94.35-2.55 1.04-.6.67-.9 1.54-.9 2.6s.3 1.94.9 2.63c.62.67 1.46 1.01 2.55 1.01 1.08 0 1.93-.34 2.55-1zm21.17-2.05c0 2.07-.67 3.68-2 4.81a7.63 7.63 0 01-5.14 1.71 7 7 0 01-5.18-1.99c-1.33-1.34-2-3.38-2-6.13 0-4.35 1.38-7.38 4.12-9.1a11.24 11.24 0 013.5-1.43c1.27-.28 2.37-.5 3.3-.7a4.3 4.3 0 002.22-1.03v3.55c-.63.53-1.7.9-3.22 1.15-1.5.23-2.65.55-3.47.98-.71.4-1.27.94-1.68 1.65a5.9 5.9 0 00-.79 2.16c1.01-1.4 2.47-2.1 4.37-2.1 1.72 0 3.14.58 4.26 1.74 1.14 1.15 1.7 2.73 1.7 4.73zm-10.34.03c0 .87.26 1.66.79 2.35.52.69 1.32 1.03 2.4 1.03 1.09 0 1.88-.33 2.39-1 .52-.7.78-1.49.78-2.38 0-.9-.26-1.68-.78-2.36-.5-.69-1.3-1.03-2.38-1.03-1.07 0-1.87.35-2.41 1.06-.52.7-.79 1.47-.79 2.33zm14.31 4.62c-1.44-1.25-2.15-3-2.15-5.24s.72-3.99 2.15-5.24a7.74 7.74 0 015.27-1.87c2.09 0 3.84.62 5.26 1.87 1.44 1.25 2.16 3 2.16 5.24s-.72 3.99-2.16 5.24a7.67 7.67 0 01-5.26 1.87 7.74 7.74 0 01-5.27-1.87zm7.81-2.6c.62-.7.93-1.58.93-2.64a3.7 3.7 0 00-.93-2.6 3.24 3.24 0 00-2.54-1.04c-1.09 0-1.94.35-2.55 1.04-.6.67-.9 1.54-.9 2.6s.3 1.94.9 2.63c.61.67 1.46 1.01 2.55 1.01 1.08 0 1.93-.34 2.54-1zm14 4.08H331V23.84h-4.28v-3.28h12.43v3.28h-4.28V34zm7.42-1.48c-1.43-1.25-2.15-3-2.15-5.24s.72-3.99 2.15-5.24a7.74 7.74 0 015.27-1.87c2.09 0 3.84.62 5.26 1.87 1.44 1.25 2.16 3 2.16 5.24s-.72 3.99-2.16 5.24a7.67 7.67 0 01-5.26 1.87 7.74 7.74 0 01-5.27-1.87zm7.81-2.6c.62-.7.93-1.58.93-2.64a3.7 3.7 0 00-.93-2.6 3.24 3.24 0 00-2.54-1.04c-1.09 0-1.94.35-2.55 1.04-.6.67-.9 1.54-.9 2.6s.3 1.94.9 2.63c.61.67 1.46 1.01 2.55 1.01 1.08 0 1.93-.34 2.54-1zm14 4.08h-3.86V23.84h-4.28v-3.28h12.43v3.28h-4.28V34zm5.27-6.72c0-1.21.21-2.29.64-3.22a5.8 5.8 0 011.68-2.24 8.4 8.4 0 012.21-1.23 7.03 7.03 0 012.38-.42c1.35 0 2.5.25 3.48.75s1.71 1.16 2.18 1.96a7.66 7.66 0 01.81 5.66h-9.46c.2.93.74 1.63 1.62 2.1.88.45 1.91.67 3.1.67 1.48 0 2.84-.27 4.07-.81v3.05c-1.33.56-2.97.84-4.93.84-2.24 0-4.1-.62-5.57-1.87-1.48-1.25-2.21-3-2.21-5.24zm9.88-1.26c.1-.62-.08-1.25-.53-1.9-.45-.66-1.21-.98-2.3-.98-.86 0-1.6.26-2.2.78-.63.5-.94 1.2-.96 2.1h6zm14.4-5.46h4.4l-4.85 6.66L398.3 34h-4.4l-2.96-4.12-3 4.12h-4.4l5.13-6.78-4.87-6.66h4.4l2.74 4.03 2.69-4.03zM403.89 34H400V20.56h3.9v5.1h5.42v-5.1h3.9V34h-3.9v-5.1h-5.43V34zm16.01 0h-3.38V20.56h3.89v7.56l5.99-7.56h3.36V34h-3.87v-7.56L419.9 34zm17.05 0h-3.9V20.56h3.9v5.01h1.62l3.42-5.01h4.37l-4.62 6.64 5.01 6.8h-4.37l-3.86-5.32h-1.57V34zm14.84 0h-3.4V20.56h3.9v7.56l6-7.56h3.35V34h-3.86v-7.56l-6 7.56z"/><path fill="#3951E7" d="M15.6 49.56a.43.43 0 00-.43-.45c-.23 0-.42.2-.42.45 0 .24.2.44.42.44.24 0 .42-.2.42-.44zM15.52 39.72a.43.43 0 00-.42-.44c-.23 0-.42.2-.42.44 0 .25.2.45.42.45.24 0 .42-.2.42-.45zM18.26 44.64a.43.43 0 00-.42-.45c-.23 0-.42.2-.42.45 0 .24.19.44.42.44.23 0 .42-.2.42-.44zM21 49.56a.43.43 0 00-.41-.45c-.23 0-.42.2-.42.45 0 .24.19.44.42.44.23 0 .42-.2.42-.44zM13.15 24.97a.9.9 0 00-.87-.92.9.9 0 00-.87.92c0 .5.39.92.87.92a.9.9 0 00.87-.92zM15.9 29.89a.9.9 0 00-.88-.92.9.9 0 00-.87.92c0 .5.4.92.87.92a.9.9 0 00.87-.92zM18.64 34.8a.9.9 0 00-.87-.92.9.9 0 00-.87.92c0 .51.4.92.87.92a.9.9 0 00.87-.92zM21.39 39.72a.9.9 0 00-.87-.92.9.9 0 00-.87.92c0 .5.39.92.87.92a.9.9 0 00.87-.92zM24.12 44.64a.9.9 0 00-.86-.92.9.9 0 00-.87.92c0 .5.39.92.87.92a.9.9 0 00.86-.92zM26.42 49.56a.43.43 0 00-.42-.45c-.23 0-.42.2-.42.45 0 .24.2.44.42.44.23 0 .42-.2.42-.44zM19.43 24.97a1.8 1.8 0 00-1.74-1.84 1.8 1.8 0 00-1.74 1.84 1.8 1.8 0 001.74 1.84 1.8 1.8 0 001.74-1.84zM22.18 29.89a1.8 1.8 0 00-1.74-1.84 1.8 1.8 0 00-1.74 1.84 1.8 1.8 0 001.74 1.84 1.8 1.8 0 001.74-1.84zM24.92 34.8a1.8 1.8 0 00-1.73-1.84 1.8 1.8 0 00-1.74 1.84 1.8 1.8 0 001.74 1.84 1.8 1.8 0 001.73-1.84zM27.66 39.72a1.8 1.8 0 00-1.74-1.84 1.8 1.8 0 00-1.74 1.84 1.8 1.8 0 001.74 1.84 1.8 1.8 0 001.74-1.84zM29.54 44.64a.9.9 0 00-.87-.92.9.9 0 00-.87.92c0 .5.39.92.87.92a.9.9 0 00.87-.92zM31.84 49.56a.43.43 0 00-.42-.45c-.24 0-.42.2-.42.45 0 .24.18.44.42.44.23 0 .42-.2.42-.44zM24.84 24.97a1.8 1.8 0 00-1.73-1.84 1.8 1.8 0 00-1.74 1.84 1.8 1.8 0 001.74 1.84 1.8 1.8 0 001.73-1.84zM27.59 29.89a1.8 1.8 0 00-1.74-1.84 1.8 1.8 0 00-1.74 1.84 1.8 1.8 0 001.74 1.84 1.8 1.8 0 001.74-1.84zM30.33 34.8a1.8 1.8 0 00-1.74-1.84 1.8 1.8 0 00-1.74 1.84 1.8 1.8 0 001.74 1.84 1.8 1.8 0 001.74-1.84zM33.07 39.72a1.8 1.8 0 00-1.73-1.84 1.8 1.8 0 00-1.74 1.84 1.8 1.8 0 001.74 1.84 1.8 1.8 0 001.73-1.84zM34.95 44.64a.9.9 0 00-.87-.92.9.9 0 00-.87.92c0 .5.4.92.87.92a.9.9 0 00.87-.92zM37.25 49.56a.43.43 0 00-.42-.45c-.23 0-.42.2-.42.45 0 .24.19.44.42.44.23 0 .42-.2.42-.44zM29.39 24.97a.9.9 0 00-.87-.92.9.9 0 00-.87.92c0 .5.39.92.87.92a.9.9 0 00.87-.92zM32.13 29.89a.9.9 0 00-.87-.92.9.9 0 00-.87.92c0 .5.39.92.87.92a.9.9 0 00.87-.92zM34.87 34.8a.9.9 0 00-.87-.92.9.9 0 00-.87.92c0 .51.4.92.87.92a.9.9 0 00.87-.92zM37.62 39.72a.9.9 0 00-.87-.92.9.9 0 00-.87.92c0 .5.4.92.87.92a.9.9 0 00.87-.92zM39.92 44.64a.43.43 0 00-.42-.45c-.23 0-.42.2-.42.45 0 .24.19.44.42.44.23 0 .42-.2.42-.44zM42.67 49.56a.43.43 0 00-.42-.45c-.24 0-.42.2-.42.45 0 .24.18.44.42.44.23 0 .42-.2.42-.44zM34.34 24.97a.43.43 0 00-.42-.45c-.23 0-.42.2-.42.45 0 .24.2.44.42.44.24 0 .42-.2.42-.44zM37.1 29.89a.43.43 0 00-.43-.45c-.23 0-.42.2-.42.45 0 .24.19.44.42.44.23 0 .42-.2.42-.44zM39.84 34.8a.43.43 0 00-.42-.44c-.23 0-.42.2-.42.44 0 .25.19.45.42.45.23 0 .42-.2.42-.45zM42.59 39.72a.43.43 0 00-.42-.44c-.24 0-.42.2-.42.44 0 .25.18.45.42.45.23 0 .42-.2.42-.45zM45.33 44.64a.43.43 0 00-.42-.45c-.23 0-.42.2-.42.45 0 .24.19.44.42.44.23 0 .42-.2.42-.44zM39.76 24.97a.43.43 0 00-.42-.45c-.23 0-.42.2-.42.45 0 .24.19.44.42.44.23 0 .42-.2.42-.44zM42.5 29.89a.43.43 0 00-.41-.45c-.24 0-.42.2-.42.45 0 .24.18.44.42.44.23 0 .42-.2.42-.44zM45.25 34.8a.43.43 0 00-.42-.44c-.23 0-.42.2-.42.44 0 .25.2.45.42.45.23 0 .42-.2.42-.45zM48 39.72a.43.43 0 00-.42-.44c-.23 0-.42.2-.42.44 0 .25.19.45.42.45.23 0 .42-.2.42-.45zM45.17 24.97a.43.43 0 00-.42-.45c-.23 0-.42.2-.42.45 0 .24.2.44.42.44.23 0 .42-.2.42-.44zM47.92 29.89a.43.43 0 00-.42-.45c-.23 0-.42.2-.42.45 0 .24.19.44.42.44.23 0 .42-.2.42-.44zM50.67 34.8a.43.43 0 00-.42-.44c-.24 0-.42.2-.42.44 0 .25.18.45.42.45.23 0 .42-.2.42-.45zM50.59 24.97a.43.43 0 00-.42-.45c-.24 0-.42.2-.42.45 0 .24.18.44.42.44.23 0 .42-.2.42-.44zM53.33 29.89a.43.43 0 00-.42-.45c-.23 0-.42.2-.42.45 0 .24.2.44.42.44.24 0 .42-.2.42-.44zM56 24.97a.43.43 0 00-.42-.45c-.23 0-.42.2-.42.45 0 .24.19.44.42.44.23 0 .42-.2.42-.44zM15.6.44a.43.43 0 00-.43-.44c-.23 0-.42.2-.42.44 0 .25.2.45.42.45.24 0 .42-.2.42-.45zM15.52 10.29a.43.43 0 00-.42-.44c-.23 0-.42.2-.42.44s.2.44.42.44c.24 0 .42-.2.42-.44zM18.26 5.36a.43.43 0 00-.42-.44c-.23 0-.42.2-.42.44 0 .25.19.45.42.45.23 0 .42-.2.42-.45zM21 .44A.43.43 0 0020.6 0c-.23 0-.42.2-.42.44 0 .25.19.45.42.45.23 0 .42-.2.42-.45z"/><path fill="#3951E7" d="M13.15 25.04a.9.9 0 00-.87-.92.9.9 0 00-.87.92c0 .51.39.92.87.92a.9.9 0 00.87-.92zM15.9 20.12a.9.9 0 00-.88-.92.9.9 0 00-.87.92c0 .51.4.92.87.92a.9.9 0 00.87-.92zM18.64 15.2a.9.9 0 00-.87-.91.9.9 0 00-.87.92c0 .5.4.92.87.92a.9.9 0 00.87-.92zM21.39 10.29a.9.9 0 00-.87-.92.9.9 0 00-.87.92c0 .5.39.92.87.92a.9.9 0 00.87-.92zM24.12 5.36a.9.9 0 00-.86-.92.9.9 0 00-.87.92c0 .51.39.92.87.92a.9.9 0 00.86-.92zM26.42.44A.43.43 0 0026 0c-.23 0-.42.2-.42.44 0 .25.2.45.42.45.23 0 .42-.2.42-.45zM19.43 25.04a1.8 1.8 0 00-1.74-1.84 1.8 1.8 0 00-1.74 1.84 1.8 1.8 0 001.74 1.84 1.8 1.8 0 001.74-1.84zM22.18 20.12a1.8 1.8 0 00-1.74-1.84 1.8 1.8 0 00-1.74 1.84 1.8 1.8 0 001.74 1.84 1.8 1.8 0 001.74-1.84zM24.92 15.2a1.8 1.8 0 00-1.73-1.83 1.8 1.8 0 00-1.74 1.84 1.8 1.8 0 001.74 1.84 1.8 1.8 0 001.73-1.84zM27.66 10.29a1.8 1.8 0 00-1.74-1.84 1.8 1.8 0 00-1.74 1.84 1.8 1.8 0 001.74 1.84 1.8 1.8 0 001.74-1.84zM29.54 5.36a.9.9 0 00-.87-.92.9.9 0 00-.87.92c0 .51.39.92.87.92a.9.9 0 00.87-.92zM31.84.44a.43.43 0 00-.42-.44c-.24 0-.42.2-.42.44 0 .25.18.45.42.45.23 0 .42-.2.42-.45zM24.84 25.04a1.8 1.8 0 00-1.73-1.84 1.8 1.8 0 00-1.74 1.84 1.8 1.8 0 001.74 1.84 1.8 1.8 0 001.73-1.84zM27.59 20.12a1.8 1.8 0 00-1.74-1.84 1.8 1.8 0 00-1.74 1.84 1.8 1.8 0 001.74 1.84 1.8 1.8 0 001.74-1.84zM30.33 15.2a1.8 1.8 0 00-1.74-1.83 1.8 1.8 0 00-1.74 1.84 1.8 1.8 0 001.74 1.84 1.8 1.8 0 001.74-1.84zM33.07 10.29a1.8 1.8 0 00-1.73-1.84 1.8 1.8 0 00-1.74 1.84 1.8 1.8 0 001.74 1.84 1.8 1.8 0 001.73-1.84zM34.95 5.36a.9.9 0 00-.87-.92.9.9 0 00-.87.92c0 .51.4.92.87.92a.9.9 0 00.87-.92zM37.25.44a.43.43 0 00-.42-.44c-.23 0-.42.2-.42.44 0 .25.19.45.42.45.23 0 .42-.2.42-.45zM29.39 25.04a.9.9 0 00-.87-.92.9.9 0 00-.87.92c0 .51.39.92.87.92a.9.9 0 00.87-.92zM32.13 20.12a.9.9 0 00-.87-.92.9.9 0 00-.87.92c0 .51.39.92.87.92a.9.9 0 00.87-.92zM34.87 15.2a.9.9 0 00-.87-.91.9.9 0 00-.87.92c0 .5.4.92.87.92a.9.9 0 00.87-.92zM37.62 10.29a.9.9 0 00-.87-.92.9.9 0 00-.87.92c0 .5.4.92.87.92a.9.9 0 00.87-.92zM39.92 5.36a.43.43 0 00-.42-.44c-.23 0-.42.2-.42.44 0 .25.19.45.42.45.23 0 .42-.2.42-.45zM42.67.44a.43.43 0 00-.42-.44c-.24 0-.42.2-.42.44 0 .25.18.45.42.45.23 0 .42-.2.42-.45zM34.34 25.04a.43.43 0 00-.42-.44c-.23 0-.42.2-.42.44 0 .25.2.45.42.45.24 0 .42-.2.42-.45zM37.1 20.12a.43.43 0 00-.43-.44c-.23 0-.42.2-.42.44 0 .25.19.45.42.45.23 0 .42-.2.42-.45zM39.84 15.2a.43.43 0 00-.42-.44c-.23 0-.42.2-.42.45 0 .24.19.44.42.44.23 0 .42-.2.42-.44zM42.59 10.29a.43.43 0 00-.42-.44c-.24 0-.42.2-.42.44s.18.44.42.44c.23 0 .42-.2.42-.44zM45.33 5.36a.43.43 0 00-.42-.44c-.23 0-.42.2-.42.44 0 .25.19.45.42.45.23 0 .42-.2.42-.45zM39.76 25.04a.43.43 0 00-.42-.44c-.23 0-.42.2-.42.44 0 .25.19.45.42.45.23 0 .42-.2.42-.45zM42.5 20.12a.43.43 0 00-.41-.44c-.24 0-.42.2-.42.44 0 .25.18.45.42.45.23 0 .42-.2.42-.45zM45.25 15.2a.43.43 0 00-.42-.44c-.23 0-.42.2-.42.45 0 .24.2.44.42.44.23 0 .42-.2.42-.44zM48 10.29a.43.43 0 00-.42-.44c-.23 0-.42.2-.42.44s.19.44.42.44c.23 0 .42-.2.42-.44zM45.17 25.04a.43.43 0 00-.42-.44c-.23 0-.42.2-.42.44 0 .25.2.45.42.45.23 0 .42-.2.42-.45zM47.92 20.12a.43.43 0 00-.42-.44c-.23 0-.42.2-.42.44 0 .25.19.45.42.45.23 0 .42-.2.42-.45zM50.67 15.2a.43.43 0 00-.42-.44c-.24 0-.42.2-.42.45 0 .24.18.44.42.44.23 0 .42-.2.42-.44zM50.59 25.04a.43.43 0 00-.42-.44c-.24 0-.42.2-.42.44 0 .25.18.45.42.45.23 0 .42-.2.42-.45zM53.33 20.12a.43.43 0 00-.42-.44c-.23 0-.42.2-.42.44 0 .25.2.45.42.45.24 0 .42-.2.42-.45zM56 25.04a.43.43 0 00-.42-.44c-.23 0-.42.2-.42.44 0 .25.19.45.42.45.23 0 .42-.2.42-.45zM.84 25.55a.43.43 0 00-.42-.44c-.23 0-.42.2-.42.44 0 .25.19.44.42.44.23 0 .42-.2.42-.44zM3.59 30.47a.43.43 0 00-.42-.45c-.23 0-.42.2-.42.45 0 .24.19.44.42.44.23 0 .42-.2.42-.44zM6.33 35.38a.43.43 0 00-.42-.44c-.23 0-.42.2-.42.45 0 .24.2.44.42.44.24 0 .42-.2.42-.45zM9.08 40.3a.43.43 0 00-.42-.44c-.23 0-.42.2-.42.44 0 .25.19.45.42.45.23 0 .42-.2.42-.45zM11.83 45.22a.43.43 0 00-.42-.44c-.23 0-.42.2-.42.44 0 .25.19.44.42.44.23 0 .42-.2.42-.44zM6.25 25.55a.43.43 0 00-.42-.44c-.23 0-.42.2-.42.44 0 .25.2.44.42.44.24 0 .42-.2.42-.44zM9 30.47a.43.43 0 00-.42-.45c-.23 0-.42.2-.42.45 0 .24.19.44.42.44.23 0 .42-.2.42-.44zM11.75 35.38a.43.43 0 00-.42-.44c-.23 0-.42.2-.42.45 0 .24.19.44.42.44.23 0 .42-.2.42-.45z"/><path fill="#3951E7" d="M.84 25.62a.43.43 0 00-.42-.44c-.23 0-.42.2-.42.44 0 .25.19.45.42.45.23 0 .42-.2.42-.45zM3.59 20.7a.43.43 0 00-.42-.44c-.23 0-.42.2-.42.45 0 .24.19.44.42.44.23 0 .42-.2.42-.44zM6.33 15.79a.43.43 0 00-.42-.45c-.23 0-.42.2-.42.45 0 .24.2.44.42.44.24 0 .42-.2.42-.44zM9.08 10.87a.43.43 0 00-.42-.44c-.23 0-.42.2-.42.44 0 .25.19.45.42.45.23 0 .42-.2.42-.45zM11.83 5.94a.43.43 0 00-.42-.44c-.23 0-.42.2-.42.44 0 .25.19.45.42.45.23 0 .42-.2.42-.45zM6.25 25.62a.43.43 0 00-.42-.44c-.23 0-.42.2-.42.44 0 .25.2.45.42.45.24 0 .42-.2.42-.45zM9 20.7a.43.43 0 00-.42-.44c-.23 0-.42.2-.42.45 0 .24.19.44.42.44.23 0 .42-.2.42-.44zM11.75 15.79a.43.43 0 00-.42-.45c-.23 0-.42.2-.42.45 0 .24.19.44.42.44.23 0 .42-.2.42-.44z"/></svg>
