<svg xmlns="http://www.w3.org/2000/svg" fill="none" viewBox="0 0 304 32"><mask id="a" width="5" height="4" x="6" y="18" maskUnits="userSpaceOnUse"><path fill="#fff" fill-rule="evenodd" d="M10.37 19.75c0 .96-.79 1.74-1.76 1.74s-1.76-.78-1.76-1.74c0-.97.79-1.74 1.76-1.74s1.76.77 1.76 1.74z" clip-rule="evenodd"/></mask><g mask="url(#a)"><path fill="#fff" fill-rule="evenodd" d="M2.7 25.58h11.81V13.91H2.71v11.67z" clip-rule="evenodd"/></g><mask id="b" width="6" height="7" x="13" y="5" maskUnits="userSpaceOnUse"><path fill="#fff" fill-rule="evenodd" d="M18.83 8.5a2.63 2.63 0 01-2.64 2.62 2.63 2.63 0 01-2.64-2.61 2.63 2.63 0 012.64-2.61 2.63 2.63 0 012.64 2.6z" clip-rule="evenodd"/></mask><g mask="url(#b)"><path fill="#fff" fill-rule="evenodd" d="M9.4 15.21h13.57V1.81H9.4v13.4z" clip-rule="evenodd"/></g><mask id="c" width="6" height="6" x="21" y="9" maskUnits="userSpaceOnUse"><path fill="#fff" fill-rule="evenodd" d="M26.4 12.25a2.63 2.63 0 01-2.63 2.61 2.63 2.63 0 01-2.64-2.6 2.63 2.63 0 012.64-2.62 2.63 2.63 0 012.64 2.61z" clip-rule="evenodd"/></mask><g mask="url(#c)"><path fill="#fff" fill-rule="evenodd" d="M16.98 18.96h13.57V5.56H16.98v13.4z" clip-rule="evenodd"/></g><mask id="d" width="6" height="6" x="28" y="13" maskUnits="userSpaceOnUse"><path fill="#fff" fill-rule="evenodd" d="M33.99 16a2.63 2.63 0 01-2.64 2.61A2.63 2.63 0 0128.7 16a2.63 2.63 0 012.65-2.61A2.63 2.63 0 0133.99 16z" clip-rule="evenodd"/></mask><g mask="url(#d)"><path fill="#fff" fill-rule="evenodd" d="M24.56 22.7h13.57V9.3H24.56v13.4z" clip-rule="evenodd"/></g><mask id="e" width="6" height="6" x="21" y="17" maskUnits="userSpaceOnUse"><path fill="#fff" fill-rule="evenodd" d="M26.4 19.75a2.63 2.63 0 01-2.63 2.6 2.63 2.63 0 01-2.64-2.6 2.63 2.63 0 012.64-2.61 2.63 2.63 0 012.64 2.6z" clip-rule="evenodd"/></mask><g mask="url(#e)"><path fill="#fff" fill-rule="evenodd" d="M16.98 26.45h13.57v-13.4H16.98v13.4z" clip-rule="evenodd"/></g><mask id="f" width="6" height="6" x="36" y="17" maskUnits="userSpaceOnUse"><path fill="#fff" fill-rule="evenodd" d="M41.56 19.75a2.63 2.63 0 01-2.64 2.6 2.63 2.63 0 01-2.64-2.6 2.63 2.63 0 012.64-2.61 2.63 2.63 0 012.64 2.6z" clip-rule="evenodd"/></mask><g mask="url(#f)"><path fill="#fff" fill-rule="evenodd" d="M32.14 26.45h13.57v-13.4H32.14v13.4z" clip-rule="evenodd"/></g><mask id="g" width="4" height="4" x="37" y="25" maskUnits="userSpaceOnUse"><path fill="#fff" fill-rule="evenodd" d="M40.69 27.24c0 .96-.8 1.74-1.77 1.74s-1.76-.78-1.76-1.74.8-1.74 1.76-1.74c.98 0 1.77.78 1.77 1.74z" clip-rule="evenodd"/></mask><g mask="url(#g)"><path fill="#fff" fill-rule="evenodd" d="M33.02 33.07h11.8V21.4h-11.8v11.67z" clip-rule="evenodd"/></g><mask id="h" width="5" height="5" x="44" y="21" maskUnits="userSpaceOnUse"><path fill="#fff" fill-rule="evenodd" d="M48.26 23.5c0 .95-.78 1.73-1.76 1.73-.97 0-1.76-.78-1.76-1.74s.8-1.74 1.76-1.74c.98 0 1.76.78 1.76 1.74z" clip-rule="evenodd"/></mask><g mask="url(#h)"><path fill="#fff" fill-rule="evenodd" d="M40.6 29.32h11.8V17.66H40.6v11.66z" clip-rule="evenodd"/></g><mask id="i" width="7" height="6" x="43" y="13" maskUnits="userSpaceOnUse"><path fill="#fff" fill-rule="evenodd" d="M49.15 16a2.63 2.63 0 01-2.65 2.61A2.63 2.63 0 0143.86 16c0-1.44 1.19-2.61 2.64-2.61A2.63 2.63 0 0149.15 16z" clip-rule="evenodd"/></mask><g mask="url(#i)"><path fill="#fff" fill-rule="evenodd" d="M39.72 22.7H53.3V9.3H39.72v13.4z" clip-rule="evenodd"/></g><mask id="j" width="6" height="6" x="36" y="9" maskUnits="userSpaceOnUse"><path fill="#fff" fill-rule="evenodd" d="M41.57 12.25a2.63 2.63 0 01-2.65 2.61 2.63 2.63 0 01-2.64-2.6 2.63 2.63 0 012.64-2.62 2.63 2.63 0 012.65 2.61z" clip-rule="evenodd"/></mask><g mask="url(#j)"><path fill="#fff" fill-rule="evenodd" d="M32.14 18.96h13.57V5.56H32.14v13.4z" clip-rule="evenodd"/></g><mask id="k" width="5" height="5" x="29" y="21" maskUnits="userSpaceOnUse"><path fill="#fff" fill-rule="evenodd" d="M33.1 23.5c0 .95-.78 1.73-1.75 1.73-.98 0-1.77-.78-1.77-1.74s.8-1.74 1.77-1.74 1.76.78 1.76 1.74z" clip-rule="evenodd"/></mask><g mask="url(#k)"><path fill="#fff" fill-rule="evenodd" d="M25.44 29.32h11.8V17.66h-11.8v11.66z" clip-rule="evenodd"/></g><mask id="l" width="7" height="7" x="43" y="5" maskUnits="userSpaceOnUse"><path fill="#fff" fill-rule="evenodd" d="M49.15 8.5a2.63 2.63 0 01-2.65 2.62 2.63 2.63 0 01-2.64-2.61A2.63 2.63 0 0146.5 5.9a2.63 2.63 0 012.65 2.6z" clip-rule="evenodd"/></mask><g mask="url(#l)"><path fill="#fff" fill-rule="evenodd" d="M39.72 15.21H53.3V1.81H39.72v13.4z" clip-rule="evenodd"/></g><mask id="m" width="4" height="4" x="52" y="3" maskUnits="userSpaceOnUse"><path fill="#fff" fill-rule="evenodd" d="M55.84 4.76c0 .96-.78 1.74-1.76 1.74-.97 0-1.76-.78-1.76-1.74s.8-1.74 1.76-1.74c.98 0 1.76.78 1.76 1.74z" clip-rule="evenodd"/></mask><g mask="url(#m)"><path fill="#fff" fill-rule="evenodd" d="M48.18 10.6h11.8V-1.07h-11.8V10.6z" clip-rule="evenodd"/></g><mask id="n" width="4" height="4" x="52" y="18" maskUnits="userSpaceOnUse"><path fill="#fff" fill-rule="evenodd" d="M55.84 19.75c0 .96-.78 1.74-1.76 1.74-.97 0-1.76-.78-1.76-1.74 0-.97.8-1.74 1.76-1.74.98 0 1.76.77 1.76 1.74z" clip-rule="evenodd"/></mask><g mask="url(#n)"><path fill="#fff" fill-rule="evenodd" d="M48.18 25.58h11.8V13.91h-11.8v11.67z" clip-rule="evenodd"/></g><mask id="o" width="5" height="5" x="29" y="6" maskUnits="userSpaceOnUse"><path fill="#fff" fill-rule="evenodd" d="M33.1 8.5c0 .97-.78 1.75-1.75 1.75-.98 0-1.77-.78-1.77-1.74s.8-1.74 1.77-1.74 1.76.78 1.76 1.74z" clip-rule="evenodd"/></mask><g mask="url(#o)"><path fill="#fff" fill-rule="evenodd" d="M25.44 14.34h11.8V2.68h-11.8v11.66z" clip-rule="evenodd"/></g><mask id="p" width="4" height="4" x="22" y="25" maskUnits="userSpaceOnUse"><path fill="#fff" fill-rule="evenodd" d="M25.53 27.24c0 .96-.8 1.74-1.76 1.74-.98 0-1.76-.78-1.76-1.74s.78-1.74 1.76-1.74c.97 0 1.76.78 1.76 1.74z" clip-rule="evenodd"/></mask><g mask="url(#p)"><path fill="#fff" fill-rule="evenodd" d="M17.86 33.07h11.8V21.4h-11.8v11.67z" clip-rule="evenodd"/></g><mask id="q" width="6" height="6" x="13" y="13" maskUnits="userSpaceOnUse"><path fill="#fff" fill-rule="evenodd" d="M18.83 16a2.63 2.63 0 01-2.64 2.61A2.63 2.63 0 0113.55 16a2.63 2.63 0 012.64-2.61A2.63 2.63 0 0118.83 16z" clip-rule="evenodd"/></mask><g mask="url(#q)"><path fill="#fff" fill-rule="evenodd" d="M9.4 22.7h13.57V9.3H9.4v13.4z" clip-rule="evenodd"/></g><mask id="r" width="7" height="6" x="5" y="9" maskUnits="userSpaceOnUse"><path fill="#fff" fill-rule="evenodd" d="M11.25 12.25a2.63 2.63 0 01-2.64 2.61 2.63 2.63 0 01-2.64-2.6A2.63 2.63 0 018.6 9.63a2.63 2.63 0 012.64 2.61z" clip-rule="evenodd"/></mask><g mask="url(#r)"><path fill="#EC0B43" fill-rule="evenodd" d="M1.83 18.96h13.56V5.56H1.83v13.4z" clip-rule="evenodd"/></g><mask id="s" width="3" height="3" x="0" y="22" maskUnits="userSpaceOnUse"><path fill="#fff" fill-rule="evenodd" d="M2.06 23.5c0 .55-.46 1-1.03 1-.57 0-1.03-.45-1.03-1 0-.57.46-1.03 1.03-1.03.57 0 1.03.46 1.03 1.02z" clip-rule="evenodd"/></mask><g mask="url(#s)"><path fill="#fff" fill-rule="evenodd" d="M-4.14 28.6H6.2V18.38H-4.14V28.6z" clip-rule="evenodd"/></g><mask id="t" width="3" height="4" x="0" y="14" maskUnits="userSpaceOnUse"><path fill="#fff" fill-rule="evenodd" d="M2.06 16c0 .56-.46 1.02-1.03 1.02C.46 17.02 0 16.56 0 16s.46-1.02 1.03-1.02c.57 0 1.03.46 1.03 1.02z" clip-rule="evenodd"/></mask><g mask="url(#t)"><path fill="#fff" fill-rule="evenodd" d="M-4.14 21.11H6.2V10.89H-4.14V21.1z" clip-rule="evenodd"/></g><mask id="u" width="3" height="3" x="15" y="22" maskUnits="userSpaceOnUse"><path fill="#fff" fill-rule="evenodd" d="M17.22 23.44c0 .56-.47 1.02-1.03 1.02-.57 0-1.03-.46-1.03-1.02s.46-1.02 1.03-1.02c.56 0 1.03.46 1.03 1.02z" clip-rule="evenodd"/></mask><g mask="url(#u)"><path fill="#fff" fill-rule="evenodd" d="M11.02 28.55h10.34V18.33H11.02v10.22z" clip-rule="evenodd"/></g><mask id="v" width="3" height="3" x="15" y="0" maskUnits="userSpaceOnUse"><path fill="#fff" fill-rule="evenodd" d="M17.22 1.02c0 .56-.46 1.01-1.03 1.01-.57 0-1.03-.45-1.03-1.01 0-.57.46-1.02 1.03-1.02.57 0 1.03.45 1.03 1.02z" clip-rule="evenodd"/></mask><g mask="url(#v)"><path fill="#fff" fill-rule="evenodd" d="M11.02 6.13h10.34V-4.1H11.02V6.13z" clip-rule="evenodd"/></g><mask id="w" width="3" height="3" x="30" y="29" maskUnits="userSpaceOnUse"><path fill="#fff" fill-rule="evenodd" d="M32.32 30.98c0 .57-.46 1.02-1.03 1.02-.57 0-1.03-.45-1.03-1.02 0-.56.46-1.01 1.03-1.01.57 0 1.03.45 1.03 1.01z" clip-rule="evenodd"/></mask><g mask="url(#w)"><path fill="#fff" fill-rule="evenodd" d="M26.12 36.1h10.34V25.86H26.12V36.1z" clip-rule="evenodd"/></g><mask id="x" width="3" height="3" x="7" y="3" maskUnits="userSpaceOnUse"><path fill="#fff" fill-rule="evenodd" d="M9.64 4.76c0 .56-.46 1.02-1.03 1.02-.57 0-1.03-.46-1.03-1.02s.46-1.01 1.03-1.01c.57 0 1.03.45 1.03 1.01z" clip-rule="evenodd"/></mask><g mask="url(#x)"><path fill="#fff" fill-rule="evenodd" d="M3.44 9.87h10.34V-.35H3.44V9.87z" clip-rule="evenodd"/></g><mask id="y" width="3" height="3" x="22" y="3" maskUnits="userSpaceOnUse"><path fill="#fff" fill-rule="evenodd" d="M24.8 4.76c0 .56-.47 1.02-1.03 1.02-.57 0-1.03-.46-1.03-1.02s.46-1.01 1.03-1.01c.56 0 1.03.45 1.03 1.01z" clip-rule="evenodd"/></mask><g mask="url(#y)"><path fill="#fff" fill-rule="evenodd" d="M18.6 9.87h10.34V-.35H18.6V9.87z" clip-rule="evenodd"/></g><mask id="z" width="3" height="3" x="30" y="29" maskUnits="userSpaceOnUse"><path fill="#fff" fill-rule="evenodd" d="M32.32 30.98c0 .57-.46 1.02-1.03 1.02-.57 0-1.03-.45-1.03-1.02 0-.56.46-1.01 1.03-1.01.57 0 1.03.45 1.03 1.01z" clip-rule="evenodd"/></mask><g mask="url(#z)"><path fill="#fff" fill-rule="evenodd" d="M26.12 36.1h10.34V25.86H26.12V36.1z" clip-rule="evenodd"/></g><mask id="A" width="3" height="3" x="68" y="11" maskUnits="userSpaceOnUse"><path fill="#fff" fill-rule="evenodd" d="M70.27 12.25c0 .57-.46 1.02-1.03 1.02-.57 0-1.03-.45-1.03-1.02 0-.56.46-1.01 1.03-1.01.57 0 1.03.45 1.03 1.01z" clip-rule="evenodd"/></mask><g mask="url(#A)"><path fill="#fff" fill-rule="evenodd" d="M64.07 17.37h10.34V7.14H64.07v10.23z" clip-rule="evenodd"/></g><mask id="B" width="3" height="3" x="53" y="26" maskUnits="userSpaceOnUse"><path fill="#fff" fill-rule="evenodd" d="M55.11 27.24c0 .56-.46 1.01-1.03 1.01-.56 0-1.03-.45-1.03-1.01 0-.57.47-1.02 1.03-1.02.57 0 1.03.45 1.03 1.02z" clip-rule="evenodd"/></mask><g mask="url(#B)"><path fill="#fff" fill-rule="evenodd" d="M48.91 32.35h10.34V22.13H48.91v10.22z" clip-rule="evenodd"/></g><mask id="C" width="6" height="7" x="59" y="5" maskUnits="userSpaceOnUse"><path fill="#fff" fill-rule="evenodd" d="M64.3 8.5c0 1.45-1.18 2.62-2.64 2.62a2.63 2.63 0 01-2.64-2.61 2.63 2.63 0 012.64-2.61 2.63 2.63 0 012.64 2.6z" clip-rule="evenodd"/></mask><g mask="url(#C)"><path fill="#fff" fill-rule="evenodd" d="M54.88 15.21h13.57V1.81H54.88v13.4z" clip-rule="evenodd"/></g><mask id="D" width="6" height="6" x="51" y="9" maskUnits="userSpaceOnUse"><path fill="#fff" fill-rule="evenodd" d="M56.72 12.25c0 1.45-1.18 2.61-2.64 2.61a2.63 2.63 0 01-2.64-2.6 2.63 2.63 0 012.64-2.62 2.63 2.63 0 012.64 2.61z" clip-rule="evenodd"/></mask><g mask="url(#D)"><path fill="#fff" fill-rule="evenodd" d="M47.3 18.96h13.57V5.56H47.3v13.4z" clip-rule="evenodd"/></g><mask id="E" width="3" height="3" x="60" y="22" maskUnits="userSpaceOnUse"><path fill="#fff" fill-rule="evenodd" d="M62.7 23.5c0 .55-.47 1-1.04 1-.57 0-1.03-.45-1.03-1 0-.57.46-1.03 1.03-1.03.57 0 1.03.46 1.03 1.02z" clip-rule="evenodd"/></mask><g mask="url(#E)"><path fill="#fff" fill-rule="evenodd" d="M56.5 28.6h10.33V18.38H56.5V28.6z" clip-rule="evenodd"/></g><mask id="F" width="5" height="4" x="59" y="14" maskUnits="userSpaceOnUse"><path fill="#fff" fill-rule="evenodd" d="M63.42 16c0 .96-.78 1.74-1.76 1.74-.97 0-1.76-.78-1.76-1.74s.8-1.74 1.76-1.74c.98 0 1.76.78 1.76 1.74z" clip-rule="evenodd"/></mask><g mask="url(#F)"><path fill="#fff" fill-rule="evenodd" d="M55.76 21.83h11.8V10.17h-11.8v11.66z" clip-rule="evenodd"/></g><mask id="G" width="3" height="3" x="37" y="3" maskUnits="userSpaceOnUse"><path fill="#fff" fill-rule="evenodd" d="M39.95 4.76a1.02 1.02 0 01-2.06 0c0-.56.47-1.01 1.04-1.01.56 0 1.02.45 1.02 1.01z" clip-rule="evenodd"/></mask><g mask="url(#G)"><path fill="#fff" fill-rule="evenodd" d="M33.75 9.87H44.1V-.35H33.75V9.87z" clip-rule="evenodd"/></g><mask id="H" width="3" height="3" x="60" y="0" maskUnits="userSpaceOnUse"><path fill="#fff" fill-rule="evenodd" d="M62.7 1.02c0 .56-.47 1.01-1.04 1.01-.57 0-1.03-.45-1.03-1.01 0-.57.46-1.02 1.03-1.02.57 0 1.03.45 1.03 1.02z" clip-rule="evenodd"/></mask><g mask="url(#H)"><path fill="#fff" fill-rule="evenodd" d="M56.5 6.13h10.33V-4.1H56.5V6.13z" clip-rule="evenodd"/></g><mask id="I" width="3" height="3" x="68" y="3" maskUnits="userSpaceOnUse"><path fill="#fff" fill-rule="evenodd" d="M70.27 4.76c0 .56-.46 1.02-1.03 1.02-.57 0-1.03-.46-1.03-1.02s.46-1.01 1.03-1.01c.57 0 1.03.45 1.03 1.01z" clip-rule="evenodd"/></mask><g mask="url(#I)"><path fill="#fff" fill-rule="evenodd" d="M64.07 9.87h10.34V-.35H64.07V9.87z" clip-rule="evenodd"/></g><mask id="J" width="13" height="16" x="79" y="8" maskUnits="userSpaceOnUse"><path fill="#fff" fill-rule="evenodd" d="M91.48 10.62c.23-.54.28-.99.13-1.32-.1-.26-.32-.45-.65-.57-.78-.28-1.4.08-1.82 1.08l-2.93 7.02-4.03-7.17a1.92 1.92 0 00-.86-.89c-.33-.15-.7-.13-1.1.08-.36.2-.56.5-.59.92-.03.4.08.8.32 1.18l4.96 8.53c-.22.56-.45.98-.7 1.25-.24.28-.52.4-.85.4a2.1 2.1 0 01-.88-.18 2.56 2.56 0 00-.38-.13c-.74-.24-1.25-.03-1.5.6-.27.73 0 1.31.8 1.74.51.29 1.22.43 2.09.43.96 0 1.76-.36 2.39-1.07.6-.7 1.25-1.85 1.92-3.4l3.68-8.5z" clip-rule="evenodd"/></mask><g mask="url(#J)"><path fill="#fff" fill-rule="evenodd" d="M75.49 27.69h20.35V4.54H75.49V27.7z" clip-rule="evenodd"/></g><mask id="K" width="13" height="16" x="94" y="8" maskUnits="userSpaceOnUse"><path fill="#fff" fill-rule="evenodd" d="M95.51 23.38c.42 0 .76-.13 1-.38.25-.26.37-.6.37-1v-4.94h6.63V22c0 .4.12.73.36.98.23.26.58.4 1.01.4.43 0 .76-.14 1-.4.25-.25.37-.58.37-.98V10c0-.4-.12-.73-.36-1a1.3 1.3 0 00-1-.4c-.45 0-.79.14-1.02.4-.24.27-.36.6-.36 1v4.61h-6.63v-4.6c0-.4-.12-.74-.36-1a1.3 1.3 0 00-1-.4c-.45 0-.79.13-1.03.4-.23.26-.35.6-.35 1V22c0 .4.12.73.36.98.23.26.57.4 1.01.4z" clip-rule="evenodd"/></mask><g mask="url(#K)"><path fill="#fff" fill-rule="evenodd" d="M90 27.48h20.4V4.52H90v22.96z" clip-rule="evenodd"/></g><mask id="L" width="13" height="16" x="110" y="8" maskUnits="userSpaceOnUse"><path fill="#fff" fill-rule="evenodd" d="M111.45 23.38c.44 0 .87-.26 1.27-.77l6.8-9.18v8.58c0 .38.11.71.35.97.24.27.59.4 1.04.4.44 0 .78-.13 1-.39.23-.25.35-.58.35-.98V10c0-.92-.44-1.4-1.3-1.4-.5 0-.95.26-1.32.76l-6.75 9.24V10c0-.4-.12-.73-.36-1a1.3 1.3 0 00-1.02-.4c-.45 0-.8.14-1.02.4-.23.27-.35.6-.35 1v12c0 .42.12.77.35 1 .23.25.55.37.96.37z" clip-rule="evenodd"/></mask><g mask="url(#L)"><path fill="#fff" fill-rule="evenodd" d="M106 27.48h20.4V4.52H106v22.96z" clip-rule="evenodd"/></g><mask id="M" width="12" height="16" x="126" y="8" maskUnits="userSpaceOnUse"><path fill="#fff" fill-rule="evenodd" d="M133.51 20.7c-.51.35-1.3.52-2.33.52a21 21 0 01-2.4-.12v-4.23h2.38c2.1 0 3.12.7 3.12 2.15 0 .79-.26 1.35-.77 1.69zm-2.63-5.9h-2.1v-3.9c.65-.07 1.28-.1 1.88-.1 1.96 0 2.91.61 2.91 1.88 0 1.42-.88 2.11-2.7 2.11zm3.7.68a3.48 3.48 0 001.8-3.05c0-2.6-1.84-3.92-5.48-3.92-1.28 0-2.45.09-3.46.26-.86.15-1.3.65-1.3 1.5v11.55c0 .83.44 1.32 1.28 1.43 1.01.16 2.24.24 3.65.24 4 0 6.01-1.54 6.01-4.57 0-.85-.24-1.59-.72-2.2a3.85 3.85 0 00-1.79-1.24z" clip-rule="evenodd"/></mask><g mask="url(#M)"><path fill="#fff" fill-rule="evenodd" d="M122 27.58h19.23V4.42H122v23.16z" clip-rule="evenodd"/></g><mask id="N" width="11" height="16" x="140" y="8" maskUnits="userSpaceOnUse"><path fill="#fff" fill-rule="evenodd" d="M150.12 23.05c.24-.22.36-.51.36-.88s-.12-.67-.36-.9a1.35 1.35 0 00-.95-.32h-6.1v-3.93h4.69c.4 0 .73-.12.97-.34.24-.23.36-.53.36-.9s-.12-.67-.36-.88a1.4 1.4 0 00-.97-.32h-4.69v-3.53h5.89c.39 0 .7-.1.94-.33.24-.22.36-.51.36-.87 0-.38-.12-.68-.35-.9a1.35 1.35 0 00-.95-.33h-7.23c-.44 0-.79.13-1.03.4-.24.26-.37.6-.37 1v11.96c0 .4.13.74.38 1 .25.27.6.4 1.04.4h7.42c.4 0 .71-.1.95-.33z" clip-rule="evenodd"/></mask><g mask="url(#N)"><path fill="#fff" fill-rule="evenodd" d="M136.2 27.48h18.42V4.52h-18.43v22.96z" clip-rule="evenodd"/></g><mask id="O" width="11" height="16" x="153" y="8" maskUnits="userSpaceOnUse"><path fill="#fff" fill-rule="evenodd" d="M155.93 11.02c.6-.08 1.2-.11 1.78-.11 1.97 0 2.93.8 2.93 2.43 0 1.75-1.01 2.6-3.08 2.6-.68 0-1.22-.03-1.63-.08v-4.84zm7.58 2.25c0-1.63-.52-2.84-1.54-3.6-1.02-.77-2.43-1.16-4.2-1.16-1.25 0-2.37.1-3.31.28-.84.16-1.27.69-1.27 1.56v11.66c0 .4.12.73.36.99.23.25.57.38 1.01.38.43 0 .76-.13 1-.38.25-.26.37-.6.37-1v-3.78c.43.06 1.03.09 1.78.09 1.7 0 3.11-.43 4.18-1.27 1.07-.85 1.62-2.11 1.62-3.77z" clip-rule="evenodd"/></mask><g mask="url(#O)"><path fill="#fff" fill-rule="evenodd" d="M149.05 27.48h18.6V4.42h-18.6v23.06z" clip-rule="evenodd"/></g><mask id="P" width="13" height="16" x="165" y="8" maskUnits="userSpaceOnUse"><path fill="#fff" fill-rule="evenodd" d="M175.57 20.26c-1.02.6-2.03.9-3 .9a3.8 3.8 0 01-3-1.38 5.67 5.67 0 01-1.18-3.8c0-1.55.37-2.81 1.1-3.74 1.2-1.52 3.15-1.81 5.8-.81.89.33 1.47.2 1.73-.38.3-.65.12-1.2-.54-1.66-.95-.65-2.3-.98-4-.98-2.18 0-3.9.7-5.12 2.07-1.23 1.37-1.84 3.22-1.84 5.52 0 2.32.58 4.19 1.73 5.54 1.15 1.36 2.88 2.05 5.13 2.05 1.78 0 3.27-.42 4.42-1.26.38-.28.6-.6.69-.96.08-.36.02-.68-.18-.94-.38-.54-.97-.6-1.74-.17z" clip-rule="evenodd"/></mask><g mask="url(#P)"><path fill="#fff" fill-rule="evenodd" d="M161.38 27.69h20.29V4.3h-20.3V27.7z" clip-rule="evenodd"/></g><mask id="Q" width="13" height="16" x="180" y="8" maskUnits="userSpaceOnUse"><path fill="#fff" fill-rule="evenodd" d="M191.28 8.62c-.5 0-.94.25-1.31.75l-6.76 9.24V10c0-.4-.12-.73-.35-1a1.3 1.3 0 00-1.02-.4c-.45 0-.8.14-1.03.4-.22.27-.34.6-.34 1v12c0 .43.12.77.34 1 .24.25.56.37.97.37.44 0 .87-.26 1.27-.77l6.8-9.18v8.58c0 .38.11.71.35.97.23.27.58.4 1.04.4.43 0 .77-.13 1-.39.23-.25.34-.58.34-.98V10c0-.92-.44-1.4-1.3-1.4z" clip-rule="evenodd"/></mask><g mask="url(#Q)"><path fill="#fff" fill-rule="evenodd" d="M176.33 27.48h20.4V4.52h-20.4v22.96z" clip-rule="evenodd"/></g><mask id="R" width="14" height="16" x="194" y="8" maskUnits="userSpaceOnUse"><path fill="#fff" fill-rule="evenodd" d="M207.75 9.82c0-.37-.12-.67-.36-.88a1.4 1.4 0 00-.96-.32h-10.15c-.39 0-.7.1-.94.32-.24.2-.36.5-.36.88 0 .37.12.66.36.9.23.22.55.33.94.33h3.7v10.96c0 .4.12.73.36.98.23.26.58.4 1.01.4.44 0 .78-.14 1.02-.4.24-.25.36-.58.36-.98V11.05h3.7c.4 0 .73-.11.97-.34.23-.23.35-.52.35-.89z" clip-rule="evenodd"/></mask><g mask="url(#R)"><path fill="#fff" fill-rule="evenodd" d="M190.84 27.48h21.06V4.52h-21.06v22.96z" clip-rule="evenodd"/></g><mask id="S" width="11" height="16" x="210" y="8" maskUnits="userSpaceOnUse"><path fill="#fff" fill-rule="evenodd" d="M218.99 20.95h-6.1v-3.93h4.68c.4 0 .74-.12.97-.34.24-.23.36-.53.36-.9s-.12-.67-.36-.88a1.4 1.4 0 00-.97-.32h-4.68v-3.53h5.88c.4 0 .71-.1.95-.33.24-.22.36-.51.36-.87 0-.38-.12-.68-.36-.9a1.35 1.35 0 00-.95-.33h-7.23c-.44 0-.78.13-1.03.4-.24.26-.36.6-.36 1v11.96c0 .4.12.74.37 1 .25.27.6.4 1.04.4h7.43c.39 0 .7-.1.94-.33.24-.22.36-.51.36-.88s-.12-.67-.36-.9a1.34 1.34 0 00-.94-.32z" clip-rule="evenodd"/></mask><g mask="url(#S)"><path fill="#fff" fill-rule="evenodd" d="M206 27.48h18.43V4.52H206v22.96z" clip-rule="evenodd"/></g><mask id="T" width="14" height="16" x="221" y="8" maskUnits="userSpaceOnUse"><path fill="#fff" fill-rule="evenodd" d="M234.07 9.82c0-.37-.12-.67-.36-.88a1.4 1.4 0 00-.97-.32H222.6c-.39 0-.7.1-.95.32-.24.2-.36.5-.36.88 0 .37.12.66.36.9.24.22.56.33.95.33h3.7v10.96c0 .4.12.73.35.98.24.26.58.4 1.02.4.44 0 .78-.14 1.02-.4.23-.25.35-.58.35-.98V11.05h3.7c.4 0 .73-.11.97-.34.24-.23.36-.52.36-.89z" clip-rule="evenodd"/></mask><g mask="url(#T)"><path fill="#fff" fill-rule="evenodd" d="M217.15 27.48h21.06V4.52h-21.06v22.96z" clip-rule="evenodd"/></g><mask id="U" width="13" height="16" x="242" y="8" maskUnits="userSpaceOnUse"><path fill="#fff" fill-rule="evenodd" d="M254.57 22V10.03c0-.93-.44-1.4-1.31-1.4-.5 0-.94.25-1.31.75l-6.75 9.24V10c0-.4-.12-.73-.36-1a1.3 1.3 0 00-1.02-.4c-.45 0-.8.14-1.03.4-.22.27-.34.6-.34 1v12c0 .42.12.76.35 1 .23.25.55.37.96.37.44 0 .87-.26 1.27-.77l6.8-9.18v8.58c0 .38.11.71.35.97.23.27.58.4 1.04.4.44 0 .77-.13 1-.39.23-.25.35-.58.35-.98z" clip-rule="evenodd"/></mask><g mask="url(#U)"><path fill="#fff" fill-rule="evenodd" d="M238.31 27.48h20.4V4.52h-20.4v22.96z" clip-rule="evenodd"/></g><mask id="V" width="14" height="16" x="256" y="8" maskUnits="userSpaceOnUse"><path fill="#fff" fill-rule="evenodd" d="M268.4 8.62h-10.13c-.4 0-.71.1-.95.32-.24.2-.36.5-.36.88 0 .37.12.66.36.9.24.22.55.33.95.33h3.7v10.96c0 .4.12.73.35.98.24.26.58.4 1.02.4.44 0 .78-.14 1.02-.4.23-.25.35-.58.35-.98V11.05h3.7c.4 0 .73-.11.97-.34.24-.23.36-.52.36-.89s-.12-.67-.36-.88a1.4 1.4 0 00-.97-.32z" clip-rule="evenodd"/></mask><g mask="url(#V)"><path fill="#fff" fill-rule="evenodd" d="M252.82 27.48h21.06V4.52h-21.06v22.96z" clip-rule="evenodd"/></g><mask id="W" width="15" height="16" x="271" y="8" maskUnits="userSpaceOnUse"><path fill="#fff" fill-rule="evenodd" d="M284.48 8.62c-.53 0-.98.28-1.34.84l-4.2 6.72-4.3-6.7c-.35-.57-.82-.86-1.4-.86-.37 0-.69.12-.93.35-.23.24-.35.6-.35 1.07V22c0 .9.43 1.37 1.28 1.37.86 0 1.29-.46 1.29-1.37v-8.2l3 4.65c.33.52.76.78 1.28.78.5 0 .92-.27 1.25-.8l2.96-4.74V22c0 .4.12.74.37 1 .24.25.58.38 1 .38.44 0 .78-.13 1.02-.38.23-.26.35-.6.35-1V10.03c0-.42-.1-.76-.33-1.01a1.2 1.2 0 00-.95-.4z" clip-rule="evenodd"/></mask><g mask="url(#W)"><path fill="#fff" fill-rule="evenodd" d="M267.82 27.48h22.08V4.52h-22.08v22.96z" clip-rule="evenodd"/></g><mask id="X" width="15" height="16" x="289" y="8" maskUnits="userSpaceOnUse"><path fill="#fff" fill-rule="evenodd" d="M303.24 15.91v.18a7.99 7.99 0 01-1.86 5.37c-1.24 1.42-3 2.13-5.26 2.13s-4.03-.71-5.26-2.13a8.06 8.06 0 01-1.85-5.46c0-2.2.62-4.03 1.85-5.45s3-2.14 5.25-2.14c2.26 0 4.03.72 5.27 2.14a8 8 0 011.86 5.36zm-3.97 3.81a3.74 3.74 0 01-3.15 1.44c-1.35 0-2.4-.48-3.13-1.44a6 6 0 01-1.1-3.72 6 6 0 011.1-3.72 3.72 3.72 0 013.13-1.44c1.36 0 2.42.48 3.15 1.44a6 6 0 011.1 3.72 6 6 0 01-1.1 3.72z" clip-rule="evenodd"/></mask><g mask="url(#X)"><path fill="#fff" fill-rule="evenodd" d="M284.87 27.69h22.51V4.3h-22.51V27.7z" clip-rule="evenodd"/></g></svg>
