<svg xmlns="http://www.w3.org/2000/svg">

  <symbol id="icon-lang" viewBox="0 0 24 24">
    <path fill="#f0f0f0" d="M12 24a12 12 0 100-24 12 12 0 000 24z"/><path fill="#0052b4" d="M2.48 4.7A11.96 11.96 0 00.41 8.86h6.25L2.48 4.69zM23.59 8.87a11.96 11.96 0 00-2.07-4.18l-4.18 4.18h6.25zM.41 15.13a11.96 11.96 0 002.07 4.18l4.18-4.18H.4zM19.3 2.48A11.96 11.96 0 0015.14.41v6.25l4.18-4.18zM4.7 21.52c1.22.94 2.63 1.65 4.17 2.07v-6.25l-4.18 4.18zM8.87.41a11.96 11.96 0 00-4.18 2.07l4.18 4.18V.4zM15.13 23.59a11.96 11.96 0 004.18-2.07l-4.18-4.18v6.25zM17.34 15.13l4.18 4.18a11.96 11.96 0 002.07-4.18h-6.25z"/><path fill="#d80027" d="M23.9 10.43H13.57V.1a12.12 12.12 0 00-3.14 0v10.33H.1a12.12 12.12 0 000 3.14h10.33V23.9a12.12 12.12 0 003.14 0V13.57H23.9a12.12 12.12 0 000-3.14z"/><path fill="#d80027" d="M15.13 15.13l5.36 5.36c.24-.25.48-.5.7-.78l-4.58-4.58h-1.48zM8.87 15.13L3.5 20.5c.25.24.5.48.78.7l4.58-4.58v-1.48zM8.87 8.87L3.51 3.51c-.24.25-.48.5-.7.78l4.58 4.58h1.48zM15.13 8.87l5.36-5.36c-.25-.24-.5-.48-.78-.7l-4.58 4.58v1.48z"/>
  </symbol>

  <symbol id="icon-mail" fill="currentColor" viewBox="0 0 16 14">
    <path d="M14.1.92H1.9C.85.92 0 1.74 0 2.75v8.5c0 1 .85 1.83 1.9 1.83h12.2c1.05 0 1.9-.82 1.9-1.83v-8.5c0-1-.85-1.83-1.9-1.83zm0 10.55H1.9c-.15 0-.29-.1-.29-.22V3.87l5.52 4.66c.11.1.26.15.4.15h.94c.14 0 .29-.05.4-.15l5.52-4.66v7.38c0 .12-.14.22-.29.22zM8 7.08L2.63 2.53h10.74L8 7.08z"/>
  </symbol>

  <symbol id="icon-vk" fill="currentColor" viewBox="0 0 18 11">
    <path d="M15.46 6.46c.6.59 1.22 1.13 1.76 1.77.23.29.46.58.63.91.24.47.02.99-.4 1.02h-2.62a2.02 2.02 0 01-1.66-.68c-.36-.37-.7-.76-1.05-1.15-.14-.15-.3-.3-.47-.41-.36-.24-.67-.17-.87.2-.2.39-.26.8-.28 1.23-.02.61-.21.78-.83.8a6.7 6.7 0 01-3.74-.8A8.27 8.27 0 013.4 6.99 31.76 31.76 0 01.09 1.08C-.1.61.03.36.55.35H3.1c.35 0 .58.2.71.54A15.88 15.88 0 005.56 4.1c.19.27.38.54.65.72.3.21.54.14.68-.2.1-.2.13-.44.15-.67.07-.79.08-1.58-.04-2.37-.07-.49-.35-.8-.84-.9-.25-.04-.21-.14-.1-.28.22-.25.42-.4.81-.4h2.96c.46.1.57.3.63.77v3.28c0 .19.1.72.42.84.26.09.43-.12.6-.29.7-.75 1.2-1.64 1.66-2.55.2-.4.37-.83.54-1.25.12-.31.31-.46.66-.46h2.85c.08 0 .17 0 .25.02.48.08.61.29.46.76-.23.73-.68 1.34-1.13 1.96-.47.66-.98 1.3-1.45 1.95-.43.6-.4.9.14 1.43z"/>
  </symbol>
  <symbol id="icon-instagram" fill="currentColor" viewBox="0 0 18 18">
    <path d="M12.77 0H5.23A5.23 5.23 0 000 5.23v7.54A5.23 5.23 0 005.23 18h7.54A5.23 5.23 0 0018 12.77V5.23A5.23 5.23 0 0012.77 0zm3.82 12.77c0 2.1-1.71 3.82-3.82 3.82H5.23a3.83 3.83 0 01-3.82-3.82V5.23c0-2.1 1.71-3.82 3.82-3.82h7.54c2.1 0 3.82 1.71 3.82 3.82v7.54z"/><path d="M9 4.15a4.86 4.86 0 10.01 9.71A4.86 4.86 0 009 4.15zm0 8.3a3.45 3.45 0 110-6.9 3.45 3.45 0 010 6.9zM13.92 4.78a.7.7 0 100-1.4.7.7 0 000 1.4z"/>
  </symbol>
  <symbol id="icon-twitter" fill="currentColor" viewBox="0 0 16 14">
    <path d="M15.97 1.57c-.59.26-1.22.43-1.88.51.67-.4 1.2-1.05 1.44-1.81-.64.37-1.34.65-2.08.8a3.27 3.27 0 00-5.59 2.98A9.3 9.3 0 011.11.63 3.26 3.26 0 002.13 5a3.26 3.26 0 01-1.49-.4v.03a3.28 3.28 0 002.63 3.22 3.28 3.28 0 01-1.48.05 3.28 3.28 0 003.06 2.28A6.57 6.57 0 010 11.54 9.27 9.27 0 005.02 13c6.03 0 9.32-5 9.32-9.32v-.43a6.66 6.66 0 001.63-1.7z"/>
  </symbol>
  <symbol id="icon-facebook" fill="currentColor" viewBox="0 0 9 16">
    <path d="M.26 8.52H2v7.22c0 .14.12.26.26.26h2.97c.15 0 .26-.12.26-.26V8.56h2.02c.13 0 .24-.1.25-.23l.31-2.66a.26.26 0 00-.26-.29H5.5V3.71c0-.5.27-.75.8-.75h1.52c.15 0 .26-.12.26-.26V.26A.26.26 0 007.82 0H5.63c-.36 0-1.62.07-2.62.99a2.75 2.75 0 00-.91 2.44v1.95H.26a.26.26 0 00-.26.26v2.62c0 .15.12.26.26.26z"/>
  </symbol>

  <symbol id="icon-arrow-right" fill="currentColor" viewBox="0 0 10 16">
    <path fill-rule="evenodd" clip-rule="evenodd" d="M10 1.87L8.1 0 0 8l8.1 8 1.9-1.87L3.78 8 10 1.87z"/>
  </symbol>
  <symbol id="icon-arrow-left" fill="currentColor" viewBox="0 0 10 16">
    <path fill-rule="evenodd" clip-rule="evenodd" d="M0 14.13L1.9 16 10 8 1.9 0 0 1.87 6.22 8 0 14.13z"/>
  </symbol>
  <symbol id="icon-arrow-down" fill="currentColor" viewBox="0 0 16 10">
    <path fill-rule="evenodd" clip-rule="evenodd" d="M1.87 0L0 1.87l8 8 8-8L14.13 0 8 6.13 1.87 0z"/>
  </symbol>

</svg>
